<?xml version="1.0" encoding="UTF-8" standalone="no"?>
<!DOCTYPE svg PUBLIC "-//W3C//DTD SVG 1.1//EN" "http://www.w3.org/Graphics/SVG/1.1/DTD/svg11.dtd">
<svg width="100%" height="100%" viewBox="0 0 16 16" version="1.1" xmlns="http://www.w3.org/2000/svg" xmlns:xlink="http://www.w3.org/1999/xlink" xml:space="preserve" xmlns:serif="http://www.serif.com/" style="fill-rule:evenodd;clip-rule:evenodd;stroke-linejoin:round;stroke-miterlimit:2;">
    <g transform="matrix(1,0,0,1,0,-2)">
        <path d="M8,12L6,12L6,11L8,11L8,9L9,9L9,11L11,11L11,12L9,12L9,14L8,14L8,12ZM3,16L1,16L1,15L2,15L2,7.75C2,6.232 3.232,5 4.75,5L12.25,5C13.768,5 15,6.232 15,7.75L15,15L16,15L16,16L14,16L14,7.7C14,6.762 13.238,6 12.3,6L4.7,6C3.762,6 3,6.762 3,7.7L3,16Z"/>
    </g>
</svg>
