<?xml version="1.0" encoding="UTF-8" standalone="no"?>
<!DOCTYPE svg PUBLIC "-//W3C//DTD SVG 1.1//EN" "http://www.w3.org/Graphics/SVG/1.1/DTD/svg11.dtd">
<svg width="100%" height="100%" viewBox="0 0 16 16" version="1.1" xmlns="http://www.w3.org/2000/svg" xmlns:xlink="http://www.w3.org/1999/xlink" xml:space="preserve" xmlns:serif="http://www.serif.com/" style="fill-rule:evenodd;clip-rule:evenodd;stroke-linejoin:round;stroke-miterlimit:2;">
    <g transform="matrix(1,0,0,1,1,1)">
        <path d="M9.476,10.89C8.495,11.589 7.295,12 6,12C2.689,12 0,9.311 0,6C0,2.689 2.689,0 6,0C9.311,0 12,2.689 12,6C12,7.295 11.589,8.495 10.89,9.476L13.699,12.285C14.089,12.675 14.089,13.309 13.699,13.699C13.309,14.089 12.675,14.089 12.285,13.699L9.476,10.89ZM9.999,9C10.627,8.164 11,7.125 11,6C11,3.24 8.76,1 6,1C3.24,1 1,3.24 1,6C1,8.76 3.24,11 6,11C7.125,11 8.164,10.627 9,9.999C9.378,9.715 9.715,9.378 9.999,9Z"/>
    </g>
</svg>
